<mxfile>
    <diagram id="AeNHVxHTNWx78PDLEp1t" name="作用域">
        <mxGraphModel dx="1965" dy="882" grid="1" gridSize="10" guides="1" tooltips="1" connect="1" arrows="1" fold="1" page="0" pageScale="1" pageWidth="827" pageHeight="1169" math="0" shadow="0">
            <root>
                <mxCell id="8zJ_PlbFqVKxmLDkKamQ-0"/>
                <mxCell id="8zJ_PlbFqVKxmLDkKamQ-1" parent="8zJ_PlbFqVKxmLDkKamQ-0"/>
                <mxCell id="8zJ_PlbFqVKxmLDkKamQ-21" style="edgeStyle=none;rounded=0;orthogonalLoop=1;jettySize=auto;html=1;" edge="1" parent="8zJ_PlbFqVKxmLDkKamQ-1" source="8zJ_PlbFqVKxmLDkKamQ-2" target="Z1mgromD7a7L5F83hWbL-1">
                    <mxGeometry relative="1" as="geometry">
                        <mxPoint x="600" y="100" as="targetPoint"/>
                    </mxGeometry>
                </mxCell>
                <mxCell id="8zJ_PlbFqVKxmLDkKamQ-22" value="symbol_table" style="edgeLabel;html=1;align=center;verticalAlign=middle;resizable=0;points=[];" vertex="1" connectable="0" parent="8zJ_PlbFqVKxmLDkKamQ-21">
                    <mxGeometry x="-0.099" y="-2" relative="1" as="geometry">
                        <mxPoint as="offset"/>
                    </mxGeometry>
                </mxCell>
                <mxCell id="8zJ_PlbFqVKxmLDkKamQ-2" value="name: global_1&lt;br&gt;seq: 1&lt;br&gt;type: gloable&lt;br&gt;parent: null" style="ellipse;whiteSpace=wrap;html=1;fillColor=#cdeb8b;strokeColor=#36393d;" vertex="1" parent="8zJ_PlbFqVKxmLDkKamQ-1">
                    <mxGeometry x="320" y="45" width="120" height="80" as="geometry"/>
                </mxCell>
                <mxCell id="8zJ_PlbFqVKxmLDkKamQ-7" style="rounded=0;orthogonalLoop=1;jettySize=auto;html=1;" edge="1" parent="8zJ_PlbFqVKxmLDkKamQ-1" source="8zJ_PlbFqVKxmLDkKamQ-3" target="8zJ_PlbFqVKxmLDkKamQ-2">
                    <mxGeometry relative="1" as="geometry"/>
                </mxCell>
                <mxCell id="8zJ_PlbFqVKxmLDkKamQ-26" style="edgeStyle=none;rounded=0;orthogonalLoop=1;jettySize=auto;html=1;" edge="1" parent="8zJ_PlbFqVKxmLDkKamQ-1" source="8zJ_PlbFqVKxmLDkKamQ-3" target="8zJ_PlbFqVKxmLDkKamQ-25">
                    <mxGeometry relative="1" as="geometry"/>
                </mxCell>
                <mxCell id="8zJ_PlbFqVKxmLDkKamQ-27" value="symbol_table" style="edgeLabel;html=1;align=center;verticalAlign=middle;resizable=0;points=[];" vertex="1" connectable="0" parent="8zJ_PlbFqVKxmLDkKamQ-26">
                    <mxGeometry x="0.22" y="-1" relative="1" as="geometry">
                        <mxPoint x="11" y="1" as="offset"/>
                    </mxGeometry>
                </mxCell>
                <mxCell id="8zJ_PlbFqVKxmLDkKamQ-3" value="name: local_1&lt;br&gt;seq: 2&lt;br&gt;type: local&lt;br&gt;parent: global_1" style="ellipse;whiteSpace=wrap;html=1;fillColor=#cdeb8b;strokeColor=#36393d;" vertex="1" parent="8zJ_PlbFqVKxmLDkKamQ-1">
                    <mxGeometry x="240" y="210" width="120" height="80" as="geometry"/>
                </mxCell>
                <mxCell id="8zJ_PlbFqVKxmLDkKamQ-19" style="edgeStyle=none;rounded=0;orthogonalLoop=1;jettySize=auto;html=1;" edge="1" parent="8zJ_PlbFqVKxmLDkKamQ-1" source="Z1mgromD7a7L5F83hWbL-1" target="8zJ_PlbFqVKxmLDkKamQ-9">
                    <mxGeometry relative="1" as="geometry">
                        <mxPoint x="760" y="95" as="sourcePoint"/>
                    </mxGeometry>
                </mxCell>
                <mxCell id="Z1mgromD7a7L5F83hWbL-5" value="symbol_val" style="edgeLabel;html=1;align=center;verticalAlign=middle;resizable=0;points=[];" vertex="1" connectable="0" parent="8zJ_PlbFqVKxmLDkKamQ-19">
                    <mxGeometry x="-0.1539" relative="1" as="geometry">
                        <mxPoint as="offset"/>
                    </mxGeometry>
                </mxCell>
                <mxCell id="8zJ_PlbFqVKxmLDkKamQ-9" value="AstNode" style="ellipse;whiteSpace=wrap;html=1;fillColor=#ffcc99;strokeColor=#36393d;" vertex="1" parent="8zJ_PlbFqVKxmLDkKamQ-1">
                    <mxGeometry x="820" y="20" width="120" height="80" as="geometry"/>
                </mxCell>
                <mxCell id="8zJ_PlbFqVKxmLDkKamQ-13" value="AstNode" style="ellipse;whiteSpace=wrap;html=1;fillColor=#ffcc99;strokeColor=#36393d;" vertex="1" parent="8zJ_PlbFqVKxmLDkKamQ-1">
                    <mxGeometry x="820" y="125" width="120" height="80" as="geometry"/>
                </mxCell>
                <mxCell id="8zJ_PlbFqVKxmLDkKamQ-14" style="edgeStyle=none;rounded=0;orthogonalLoop=1;jettySize=auto;html=1;exitX=0.75;exitY=0;exitDx=0;exitDy=0;fillColor=#f9f7ed;strokeColor=#36393d;" edge="1" parent="8zJ_PlbFqVKxmLDkKamQ-1">
                    <mxGeometry relative="1" as="geometry">
                        <mxPoint x="630" y="90" as="sourcePoint"/>
                        <mxPoint x="630" y="90" as="targetPoint"/>
                    </mxGeometry>
                </mxCell>
                <mxCell id="8zJ_PlbFqVKxmLDkKamQ-20" style="edgeStyle=none;rounded=0;orthogonalLoop=1;jettySize=auto;html=1;" edge="1" parent="8zJ_PlbFqVKxmLDkKamQ-1" source="Z1mgromD7a7L5F83hWbL-2" target="8zJ_PlbFqVKxmLDkKamQ-13">
                    <mxGeometry relative="1" as="geometry">
                        <mxPoint x="760" y="143.33333333333326" as="sourcePoint"/>
                    </mxGeometry>
                </mxCell>
                <mxCell id="Z1mgromD7a7L5F83hWbL-6" value="symbol_val" style="edgeLabel;html=1;align=center;verticalAlign=middle;resizable=0;points=[];" vertex="1" connectable="0" parent="8zJ_PlbFqVKxmLDkKamQ-20">
                    <mxGeometry x="-0.1203" y="3" relative="1" as="geometry">
                        <mxPoint as="offset"/>
                    </mxGeometry>
                </mxCell>
                <mxCell id="8zJ_PlbFqVKxmLDkKamQ-18" style="edgeStyle=none;rounded=0;orthogonalLoop=1;jettySize=auto;html=1;exitX=0.75;exitY=0;exitDx=0;exitDy=0;fillColor=#f9f7ed;strokeColor=#36393d;" edge="1" parent="8zJ_PlbFqVKxmLDkKamQ-1">
                    <mxGeometry relative="1" as="geometry">
                        <mxPoint x="630" y="100" as="sourcePoint"/>
                        <mxPoint x="630" y="100" as="targetPoint"/>
                    </mxGeometry>
                </mxCell>
                <mxCell id="8zJ_PlbFqVKxmLDkKamQ-24" style="edgeStyle=none;rounded=0;orthogonalLoop=1;jettySize=auto;html=1;" edge="1" parent="8zJ_PlbFqVKxmLDkKamQ-1" source="8zJ_PlbFqVKxmLDkKamQ-23" target="8zJ_PlbFqVKxmLDkKamQ-2">
                    <mxGeometry relative="1" as="geometry"/>
                </mxCell>
                <mxCell id="8zJ_PlbFqVKxmLDkKamQ-31" style="edgeStyle=none;rounded=0;orthogonalLoop=1;jettySize=auto;html=1;" edge="1" parent="8zJ_PlbFqVKxmLDkKamQ-1" source="8zJ_PlbFqVKxmLDkKamQ-23" target="Z1mgromD7a7L5F83hWbL-3">
                    <mxGeometry relative="1" as="geometry">
                        <mxPoint x="600" y="250" as="targetPoint"/>
                    </mxGeometry>
                </mxCell>
                <mxCell id="Z1mgromD7a7L5F83hWbL-8" value="symbol_ta" style="edgeLabel;html=1;align=center;verticalAlign=middle;resizable=0;points=[];" vertex="1" connectable="0" parent="8zJ_PlbFqVKxmLDkKamQ-31">
                    <mxGeometry x="-0.2" y="-2" relative="1" as="geometry">
                        <mxPoint y="1" as="offset"/>
                    </mxGeometry>
                </mxCell>
                <mxCell id="8zJ_PlbFqVKxmLDkKamQ-23" value="name: local_2&lt;br&gt;seq: 3&lt;br&gt;type: local&lt;br&gt;parent: global_1" style="ellipse;whiteSpace=wrap;html=1;fillColor=#cdeb8b;strokeColor=#36393d;" vertex="1" parent="8zJ_PlbFqVKxmLDkKamQ-1">
                    <mxGeometry x="400" y="210" width="120" height="80" as="geometry"/>
                </mxCell>
                <mxCell id="8zJ_PlbFqVKxmLDkKamQ-29" style="edgeStyle=none;rounded=0;orthogonalLoop=1;jettySize=auto;html=1;" edge="1" parent="8zJ_PlbFqVKxmLDkKamQ-1" source="8zJ_PlbFqVKxmLDkKamQ-25" target="8zJ_PlbFqVKxmLDkKamQ-28">
                    <mxGeometry relative="1" as="geometry"/>
                </mxCell>
                <mxCell id="Z1mgromD7a7L5F83hWbL-0" value="&lt;span style=&quot;font-size: 12px&quot;&gt;*symbol_val&lt;/span&gt;" style="edgeLabel;html=1;align=center;verticalAlign=middle;resizable=0;points=[];" vertex="1" connectable="0" parent="8zJ_PlbFqVKxmLDkKamQ-29">
                    <mxGeometry x="0.02" y="1" relative="1" as="geometry">
                        <mxPoint as="offset"/>
                    </mxGeometry>
                </mxCell>
                <mxCell id="8zJ_PlbFqVKxmLDkKamQ-25" value="symbol_name: b&lt;br&gt;symbol_type: u8" style="rounded=0;whiteSpace=wrap;html=1;fillColor=#f9f7ed;strokeColor=#36393d;" vertex="1" parent="8zJ_PlbFqVKxmLDkKamQ-1">
                    <mxGeometry x="20" y="227.5" width="110" height="45" as="geometry"/>
                </mxCell>
                <mxCell id="8zJ_PlbFqVKxmLDkKamQ-28" value="AstNode" style="ellipse;whiteSpace=wrap;html=1;fillColor=#ffcc99;strokeColor=#36393d;" vertex="1" parent="8zJ_PlbFqVKxmLDkKamQ-1">
                    <mxGeometry x="-200" y="210" width="120" height="80" as="geometry"/>
                </mxCell>
                <mxCell id="8zJ_PlbFqVKxmLDkKamQ-33" style="edgeStyle=none;rounded=0;orthogonalLoop=1;jettySize=auto;html=1;" edge="1" parent="8zJ_PlbFqVKxmLDkKamQ-1" source="Z1mgromD7a7L5F83hWbL-3" target="8zJ_PlbFqVKxmLDkKamQ-32">
                    <mxGeometry relative="1" as="geometry">
                        <mxPoint x="640" y="250" as="sourcePoint"/>
                    </mxGeometry>
                </mxCell>
                <mxCell id="Z1mgromD7a7L5F83hWbL-7" value="symbol_val" style="edgeLabel;html=1;align=center;verticalAlign=middle;resizable=0;points=[];" vertex="1" connectable="0" parent="8zJ_PlbFqVKxmLDkKamQ-33">
                    <mxGeometry x="-0.175" y="1" relative="1" as="geometry">
                        <mxPoint as="offset"/>
                    </mxGeometry>
                </mxCell>
                <mxCell id="8zJ_PlbFqVKxmLDkKamQ-32" value="null" style="ellipse;whiteSpace=wrap;html=1;fillColor=#ffcc99;strokeColor=#36393d;" vertex="1" parent="8zJ_PlbFqVKxmLDkKamQ-1">
                    <mxGeometry x="820" y="210" width="120" height="80" as="geometry"/>
                </mxCell>
                <mxCell id="Z1mgromD7a7L5F83hWbL-1" value="symbol_name: a&lt;br&gt;symbol_type: u8" style="rounded=0;whiteSpace=wrap;html=1;fillColor=#f9f7ed;strokeColor=#36393d;" vertex="1" parent="8zJ_PlbFqVKxmLDkKamQ-1">
                    <mxGeometry x="610" y="60" width="110" height="50" as="geometry"/>
                </mxCell>
                <mxCell id="Z1mgromD7a7L5F83hWbL-2" value="symbol_name: d&lt;br&gt;symbol_type: u8" style="rounded=0;whiteSpace=wrap;html=1;fillColor=#f9f7ed;strokeColor=#36393d;" vertex="1" parent="8zJ_PlbFqVKxmLDkKamQ-1">
                    <mxGeometry x="610" y="110" width="110" height="50" as="geometry"/>
                </mxCell>
                <mxCell id="Z1mgromD7a7L5F83hWbL-3" value="symbol_name: c&lt;br&gt;symbol_type: u8" style="rounded=0;whiteSpace=wrap;html=1;fillColor=#f9f7ed;strokeColor=#36393d;" vertex="1" parent="8zJ_PlbFqVKxmLDkKamQ-1">
                    <mxGeometry x="610" y="225" width="110" height="50" as="geometry"/>
                </mxCell>
            </root>
        </mxGraphModel>
    </diagram>
</mxfile>